<svg width="129" height="145" viewBox="0 0 129 145" fill="none" xmlns="http://www.w3.org/2000/svg">
<path d="M138.759 19.1269C138.759 19.1269 137.34 16.4869 135.07 12.9031C135.07 12.9031 127.849 18.2953 127.915 17.9917C127.981 17.6881 138.759 19.1269 138.759 19.1269Z" fill="#231F20"/>
<path d="M138.759 19.4567H138.713C134.918 18.9551 128.721 18.2027 128.047 18.2951C127.856 18.3677 127.803 18.2951 127.737 18.2951C127.681 18.2581 127.637 18.205 127.611 18.1426C127.585 18.0802 127.578 18.0115 127.592 17.9453C127.592 17.8463 127.625 17.7539 127.836 17.7077C128.265 17.5361 132.377 14.5199 134.872 12.6587C134.908 12.6313 134.95 12.6118 134.994 12.6015C135.038 12.5913 135.084 12.5906 135.129 12.5993C135.174 12.6066 135.216 12.6233 135.254 12.6484C135.291 12.6734 135.323 12.7062 135.347 12.7445C137.598 16.3217 139.036 18.9617 139.05 18.9881C139.082 19.0396 139.099 19.099 139.099 19.1597C139.099 19.2204 139.082 19.2799 139.05 19.3313C139.015 19.3749 138.971 19.4092 138.92 19.4311C138.87 19.453 138.814 19.4618 138.759 19.4567V19.4567ZM129.084 17.6615C130.443 17.7407 133.044 18.0311 138.152 18.6977C137.637 17.7737 136.509 15.8069 134.977 13.3715C131.79 15.7607 130.054 17.0015 129.084 17.6615Z" fill="#231F20"/>
<path d="M43.1516 128L39.548 121.994L44.531 117.487L43.1516 128Z" fill="#231F20"/>
<path d="M43.145 128.33C43.0871 128.331 43.0301 128.317 42.98 128.287C42.93 128.258 42.8889 128.216 42.8612 128.165L39.2576 122.166C39.2189 122.1 39.2037 122.023 39.2144 121.948C39.2252 121.872 39.2614 121.802 39.317 121.75L44.3066 117.242C44.3554 117.197 44.4175 117.167 44.4839 117.159C44.5503 117.151 44.6176 117.164 44.6762 117.196C44.7364 117.228 44.7856 117.277 44.8175 117.337C44.8493 117.397 44.8621 117.465 44.8544 117.533L43.4684 128.04C43.4594 128.108 43.43 128.171 43.384 128.222C43.338 128.273 43.2776 128.308 43.211 128.324L43.145 128.33ZM39.9638 122.054L42.9404 127.017L44.0822 118.331L39.9638 122.054Z" fill="#231F20"/>
<path d="M45.4879 129.261L103.462 137.524C104.651 137.68 105.856 137.407 106.862 136.755C107.868 136.104 108.609 135.115 108.954 133.967L138.964 21.7009C139.122 21.176 139.156 20.6216 139.064 20.0812C138.972 19.5408 138.756 19.0291 138.433 18.586C138.111 18.143 137.689 17.7808 137.203 17.5276C136.717 17.2745 136.179 17.1374 135.631 17.1271L76.5013 12.3817C75.3294 12.3203 74.1711 12.6555 73.2131 13.3333C72.2552 14.0111 71.5535 14.9918 71.2213 16.1173L42.4849 124.628C42.333 125.131 42.2925 125.661 42.3663 126.181C42.4401 126.702 42.6264 127.2 42.9122 127.641C43.198 128.082 43.5765 128.455 44.0213 128.735C44.4662 129.015 44.9666 129.194 45.4879 129.261Z" fill="#231F20"/>
<path d="M104.122 137.9C103.886 137.901 103.65 137.886 103.416 137.854L45.4418 129.584C44.878 129.515 44.3358 129.325 43.8518 129.028C43.3678 128.731 42.9534 128.333 42.6368 127.862C42.3228 127.379 42.1157 126.835 42.0291 126.266C41.9426 125.697 41.9788 125.116 42.1352 124.562L70.9178 16.0115C71.2771 14.8202 72.0245 13.7833 73.041 13.0657C74.0576 12.3481 75.2849 11.9911 76.5278 12.0515L135.657 16.8167C136.265 16.8474 136.858 17.0132 137.393 17.3021C137.929 17.5909 138.393 17.9956 138.753 18.4865C139.079 18.9635 139.295 19.5067 139.387 20.0773C139.478 20.6479 139.442 21.2316 139.281 21.7865L109.277 134.046C108.944 135.156 108.264 136.13 107.336 136.824C106.408 137.518 105.281 137.895 104.122 137.9V137.9ZM76.145 12.6785C75.1023 12.6955 74.0922 13.0445 73.2614 13.6747C72.4306 14.305 71.8224 15.1836 71.525 16.1831L42.7754 124.713C42.6408 125.179 42.6077 125.668 42.6783 126.147C42.7489 126.627 42.9215 127.085 43.1846 127.492C43.4494 127.887 43.7965 128.22 44.202 128.468C44.6076 128.717 45.062 128.875 45.5342 128.931V128.931L103.509 137.201C104.615 137.345 105.738 137.093 106.676 136.489C107.615 135.885 108.309 134.968 108.637 133.901L138.647 21.6215C138.779 21.1539 138.806 20.663 138.726 20.1839C138.646 19.7047 138.461 19.2491 138.185 18.8495C137.877 18.435 137.48 18.0947 137.023 17.8537C136.566 17.6127 136.061 17.4771 135.545 17.4569L76.475 12.6917C76.3653 12.6808 76.2551 12.6764 76.145 12.6785V12.6785Z" fill="#231F20"/>
<path d="M41.7127 123.064L99.6871 131.327C100.876 131.482 102.081 131.21 103.087 130.558C104.093 129.906 104.834 128.918 105.178 127.769L135.188 15.5034C135.346 14.9811 135.381 14.4296 135.291 13.8916C135.2 13.3537 134.987 12.8437 134.668 12.4014C134.349 11.959 133.932 11.5961 133.45 11.3409C132.968 11.0857 132.434 10.9449 131.888 10.9296L72.7591 6.16437C71.5872 6.10302 70.4289 6.43826 69.4709 7.11602C68.5129 7.79377 67.8113 8.7745 67.4791 9.89997L38.7031 118.43C38.5499 118.934 38.5087 119.465 38.5824 119.986C38.6561 120.507 38.8428 121.006 39.1295 121.447C39.4163 121.889 39.796 122.262 40.2423 122.541C40.6885 122.821 41.1903 122.999 41.7127 123.064Z" fill="white"/>
<path d="M100.347 131.703C100.111 131.704 99.875 131.689 99.6409 131.657L41.6665 123.387C41.1028 123.318 40.5605 123.128 40.0766 122.831C39.5926 122.534 39.1782 122.136 38.8615 121.664C38.5488 121.181 38.3423 120.637 38.2558 120.068C38.1693 119.499 38.2048 118.919 38.3599 118.364L67.1425 9.81423C67.4998 8.6217 68.2467 7.58344 69.2637 6.86553C70.2808 6.14761 71.5092 5.79153 72.7525 5.85423L131.882 10.626C132.49 10.6553 133.084 10.8206 133.619 11.1095C134.155 11.3985 134.619 11.8039 134.977 12.2958C135.305 12.7722 135.522 13.3155 135.613 13.8863C135.705 14.4571 135.668 15.0411 135.505 15.5958L105.502 127.882C105.163 128.986 104.48 129.952 103.553 130.64C102.625 131.328 101.502 131.7 100.347 131.703V131.703ZM72.3697 6.48123C71.3273 6.4993 70.3178 6.84866 69.4871 7.47873C68.6565 8.1088 68.048 8.98688 67.7497 9.98583L38.9737 118.516C38.8394 118.983 38.8065 119.473 38.8771 119.953C38.9476 120.433 39.1201 120.893 39.3829 121.301C39.6484 121.695 39.9958 122.027 40.4013 122.274C40.8068 122.521 41.2609 122.678 41.7325 122.734L99.7069 131.003C100.814 131.146 101.935 130.893 102.873 130.29C103.812 129.686 104.507 128.77 104.835 127.703L134.885 15.4242C135.02 14.9586 135.052 14.4687 134.976 13.9896C134.901 13.5105 134.721 13.0539 134.449 12.6522C134.145 12.2419 133.753 11.9042 133.302 11.6634C132.851 11.4226 132.353 11.2847 131.842 11.2596L72.7129 6.49443L72.3697 6.48123Z" fill="#231F20"/>
<path d="M129.46 22.8954L68.9245 17.6484L45.6925 105.217L105.343 113.157L129.46 22.8954Z" fill="#E6E7E8"/>
<path d="M105.343 113.256L45.6925 105.336C45.6778 105.334 45.6638 105.328 45.6513 105.32C45.6388 105.312 45.6282 105.302 45.6201 105.289C45.612 105.277 45.6066 105.263 45.6043 105.248C45.602 105.233 45.6028 105.218 45.6067 105.204L68.8387 17.6352C68.8435 17.6114 68.8569 17.5901 68.8764 17.5755C68.8959 17.5609 68.92 17.5539 68.9443 17.556L129.48 22.803C129.495 22.8038 129.511 22.8084 129.525 22.8164C129.539 22.8245 129.55 22.8357 129.559 22.8492C129.567 22.862 129.571 22.8769 129.571 22.8921C129.571 22.9074 129.567 22.9222 129.559 22.935L105.442 113.183C105.438 113.206 105.425 113.225 105.407 113.239C105.388 113.252 105.366 113.258 105.343 113.256V113.256ZM45.8245 105.131L105.264 113.051L129.328 22.9878L69.0037 17.7606L45.8245 105.131Z" fill="#D1D3D4"/>
<path d="M65.6773 122.417L76.9897 124.007C77.7078 124.095 78.4335 123.924 79.0378 123.527C79.642 123.129 80.0857 122.53 80.2897 121.836L81.4183 117.612C81.5123 117.29 81.5337 116.951 81.481 116.619C81.4282 116.288 81.3026 115.972 81.1133 115.695C80.9239 115.418 80.6755 115.186 80.3859 115.017C80.0963 114.847 79.7727 114.744 79.4383 114.715L68.1062 113.177C67.394 113.097 66.6765 113.271 66.08 113.668C65.4836 114.065 65.0465 114.66 64.8458 115.348L63.7303 119.533C63.6364 119.851 63.6141 120.187 63.665 120.516C63.7159 120.844 63.8388 121.157 64.0248 121.433C64.2108 121.709 64.4554 121.94 64.7411 122.11C65.0267 122.28 65.3464 122.385 65.6773 122.417V122.417Z" fill="white"/>
<path d="M77.3726 124.364C77.2298 124.374 77.0864 124.374 76.9436 124.364L65.6312 122.773C65.2556 122.732 64.8938 122.608 64.5711 122.412C64.2484 122.215 63.9729 121.95 63.7639 121.636C63.5549 121.321 63.4176 120.964 63.3616 120.59C63.3056 120.217 63.3324 119.835 63.44 119.473L64.5488 115.289C64.7736 114.524 65.2609 113.864 65.9249 113.423C66.5888 112.982 67.387 112.79 68.1788 112.88L79.511 114.411C79.8901 114.457 80.2551 114.583 80.5816 114.781C80.9082 114.979 81.189 115.245 81.4052 115.559C81.6119 115.876 81.7483 116.232 81.8052 116.606C81.8622 116.979 81.8383 117.361 81.7352 117.724L80.6132 121.942C80.4011 122.638 79.9725 123.248 79.3896 123.683C78.8068 124.119 78.1002 124.357 77.3726 124.364ZM67.763 113.48C67.178 113.49 66.6117 113.687 66.148 114.044C65.6842 114.401 65.3479 114.897 65.189 115.46L64.0736 119.645C63.9968 119.916 63.9788 120.201 64.0209 120.48C64.0631 120.759 64.1643 121.025 64.3178 121.262C64.4755 121.498 64.6832 121.697 64.9261 121.844C65.169 121.991 65.4412 122.083 65.7236 122.113V122.113L77.036 123.704C77.6746 123.783 78.3206 123.633 78.8586 123.28C79.3966 122.927 79.7916 122.394 79.973 121.777L81.095 117.553C81.1737 117.281 81.1933 116.995 81.1523 116.715C81.1113 116.435 81.0107 116.167 80.8574 115.929C80.6948 115.689 80.4818 115.489 80.2332 115.34C79.9846 115.192 79.7066 115.1 79.4186 115.071L68.0864 113.533C67.9798 113.509 67.8718 113.491 67.763 113.48V113.48Z" fill="#E6E7E8"/>
<path d="M111.554 15.3847L94.2619 13.9393C94.2188 13.936 94.1768 13.9241 94.1383 13.9042C94.0999 13.8844 94.0658 13.8571 94.0381 13.8238C94.0104 13.7906 93.9897 13.7521 93.9771 13.7108C93.9645 13.6694 93.9604 13.6259 93.9649 13.5829C93.9733 13.4964 94.0154 13.4168 94.0821 13.3612C94.1488 13.3056 94.2348 13.2785 94.3213 13.2859L111.613 14.7313C111.701 14.7313 111.785 14.766 111.847 14.8279C111.909 14.8898 111.943 14.9737 111.943 15.0613C111.943 15.1488 111.909 15.2327 111.847 15.2946C111.785 15.3565 111.701 15.3913 111.613 15.3913L111.554 15.3847Z" fill="#E6E7E8"/>
<path d="M91.8595 13.7412H91.8265L89.5363 13.5498C89.4929 13.5464 89.4506 13.5345 89.4118 13.5148C89.3731 13.4951 89.3386 13.4678 89.3104 13.4347C89.2821 13.4016 89.2608 13.3632 89.2474 13.3218C89.2341 13.2804 89.2291 13.2367 89.2327 13.1934C89.2426 13.107 89.285 13.0277 89.3511 12.9713C89.4172 12.915 89.5023 12.8858 89.5891 12.8898L91.8859 13.0812C91.9723 13.0895 92.052 13.1316 92.1076 13.1984C92.1632 13.2651 92.1902 13.351 92.1829 13.4376C92.1778 13.5198 92.1416 13.5971 92.0814 13.6535C92.0213 13.71 91.9419 13.7413 91.8595 13.7412V13.7412Z" fill="#E6E7E8"/>
<path d="M85.5632 98.9737C85.5096 98.9738 85.4568 98.9606 85.4095 98.9352C85.3623 98.9099 85.3221 98.8732 85.2926 98.8285L68.7926 75.1477C68.7651 75.1123 68.7452 75.0717 68.734 75.0283C68.7227 74.985 68.7204 74.9398 68.7272 74.8955C68.734 74.8513 68.7497 74.8088 68.7734 74.7708C68.7971 74.7328 68.8283 74.7001 68.865 74.6745C68.9018 74.649 68.9434 74.6311 68.9873 74.6222C69.0311 74.6132 69.0764 74.6133 69.1202 74.6223C69.1641 74.6314 69.2056 74.6493 69.2423 74.6749C69.2791 74.7006 69.3102 74.7334 69.3338 74.7715L85.8338 98.4523C85.8825 98.5253 85.9009 98.6144 85.8848 98.7007C85.8688 98.787 85.8197 98.8636 85.748 98.9143C85.6943 98.9533 85.6295 98.9741 85.5632 98.9737V98.9737Z" fill="white"/>
<path d="M76.5146 88.4401L55.289 86.5855C55.2456 86.5822 55.2033 86.5703 55.1645 86.5505C55.1258 86.5308 55.0913 86.5036 55.063 86.4705C55.0348 86.4373 55.0134 86.3989 55.0001 86.3575C54.9868 86.3161 54.9818 86.2725 54.9854 86.2291C54.9938 86.1421 55.0357 86.0618 55.1022 86.0052C55.1687 85.9485 55.2546 85.9199 55.3418 85.9255L76.574 87.7801C76.6597 87.7901 76.7384 87.8326 76.7937 87.8989C76.849 87.9653 76.8766 88.0503 76.871 88.1365C76.8677 88.1799 76.8558 88.2222 76.836 88.2609C76.8163 88.2997 76.7891 88.3342 76.7559 88.3624C76.7228 88.3906 76.6844 88.412 76.643 88.4254C76.6016 88.4387 76.5579 88.4437 76.5146 88.4401Z" fill="#231F20"/>
<path d="M71.0101 91.9379H70.9771L53.8831 90.4001C53.8397 90.3968 53.7974 90.3849 53.7586 90.3651C53.7199 90.3454 53.6854 90.3182 53.6572 90.285C53.6289 90.2519 53.6076 90.2135 53.5942 90.1721C53.5809 90.1307 53.5759 90.087 53.5795 90.0437C53.5836 90.0003 53.5963 89.9581 53.6168 89.9196C53.6374 89.8811 53.6653 89.8471 53.6991 89.8195C53.7328 89.7919 53.7717 89.7712 53.8135 89.7587C53.8553 89.7462 53.8991 89.7421 53.9425 89.7467L71.0365 91.2845C71.0799 91.2878 71.1222 91.2997 71.161 91.3194C71.1997 91.3392 71.2342 91.3664 71.2625 91.3995C71.2907 91.4326 71.3121 91.471 71.3254 91.5124C71.3387 91.5539 71.3437 91.5975 71.3401 91.6409C71.3305 91.722 71.2917 91.7969 71.231 91.8515C71.1703 91.9061 71.0918 91.9368 71.0101 91.9379V91.9379Z" fill="#231F20"/>
<path d="M117.567 52.1136L96.3344 50.259C96.2468 50.2511 96.166 50.2088 96.1097 50.1413C96.0534 50.0739 96.0262 49.9868 96.034 49.8993C96.0419 49.8118 96.0842 49.731 96.1517 49.6746C96.2192 49.6183 96.3062 49.5911 96.3937 49.599L117.619 51.4536C117.706 51.462 117.787 51.5038 117.843 51.5704C117.9 51.6369 117.928 51.7228 117.923 51.81C117.92 51.8534 117.908 51.8957 117.888 51.9344C117.868 51.9732 117.841 52.0077 117.808 52.0359C117.775 52.0641 117.736 52.0855 117.695 52.0989C117.654 52.1122 117.61 52.1172 117.567 52.1136Z" fill="#231F20"/>
<path d="M112.062 55.6117H112.029L94.9286 54.0739C94.8421 54.0655 94.7625 54.0234 94.7069 53.9567C94.6513 53.89 94.6242 53.804 94.6316 53.7175C94.6348 53.6744 94.6468 53.6323 94.6666 53.5939C94.6864 53.5554 94.7138 53.5213 94.747 53.4937C94.7802 53.466 94.8187 53.4452 94.8601 53.4327C94.9015 53.4201 94.9449 53.4159 94.988 53.4205L112.089 54.9583C112.132 54.9616 112.174 54.9735 112.212 54.9933C112.251 55.0131 112.285 55.0405 112.312 55.0737C112.34 55.1069 112.361 55.1454 112.373 55.1868C112.386 55.2282 112.39 55.2717 112.386 55.3147C112.377 55.3952 112.34 55.47 112.28 55.5248C112.221 55.5795 112.143 55.6105 112.062 55.6117V55.6117Z" fill="#231F20"/>
<path d="M69.3932 38.346L88.982 39.6198C89.2505 39.6353 89.5125 39.7091 89.7497 39.8359C89.9869 39.9628 90.1937 40.1397 90.3557 40.3544C90.5177 40.5692 90.631 40.8166 90.6878 41.0795C90.7447 41.3424 90.7436 41.6145 90.6848 41.877L87.5564 53.757C87.4296 54.3352 87.0992 54.8486 86.6255 55.2036C86.1518 55.5585 85.5663 55.7315 84.9758 55.6908L65.5784 54.3708C65.3094 54.3511 65.0481 54.2721 64.8132 54.1394C64.5784 54.0068 64.3758 53.8238 64.2199 53.6037C64.0641 53.3835 63.959 53.1316 63.912 52.866C63.865 52.6004 63.8774 52.3277 63.9482 52.0674L66.8588 40.1874C67.0006 39.6333 67.3314 39.1462 67.7941 38.81C68.2569 38.4738 68.8224 38.3097 69.3932 38.346V38.346Z" fill="white"/>
<path d="M85.1804 56.0141H84.9428L65.552 54.6941C65.2415 54.6724 64.9395 54.5832 64.6671 54.4327C64.3946 54.2823 64.1583 54.0741 63.9746 53.8229C63.7844 53.5605 63.653 53.2602 63.5892 52.9424C63.5254 52.6247 63.5308 52.2969 63.605 51.9815L66.5156 40.1015C66.6757 39.4689 67.0512 38.912 67.5777 38.5265C68.1041 38.141 68.7484 37.9511 69.3998 37.9895L88.982 39.2699C89.2945 39.2911 89.5988 39.3794 89.874 39.5289C90.1493 39.6784 90.3891 39.8855 90.577 40.1361C90.765 40.3867 90.8967 40.6749 90.9631 40.981C91.0295 41.2871 91.0291 41.6039 90.962 41.9099L87.827 53.7899C87.6987 54.4035 87.3681 54.9562 86.8882 55.3595C86.4083 55.7628 85.8069 55.9933 85.1804 56.0141V56.0141ZM69.2084 38.6627C68.7394 38.6728 68.2866 38.8364 67.9194 39.1285C67.5522 39.4205 67.291 39.8249 67.1756 40.2797L64.2716 52.1597C64.2113 52.3836 64.2013 52.6181 64.2424 52.8463C64.2835 53.0745 64.3746 53.2908 64.5092 53.4797C64.6375 53.6536 64.8018 53.7979 64.9908 53.9027C65.1799 54.0075 65.3893 54.0703 65.6048 54.0869L85.0022 55.4069C85.5128 55.4439 86.0196 55.2954 86.4295 54.9886C86.8393 54.6818 87.1246 54.2374 87.233 53.7371L90.3614 41.8571C90.4071 41.6454 90.4072 41.4265 90.3616 41.2148C90.3161 41.0032 90.226 40.8036 90.0974 40.6295C89.9623 40.4512 89.7904 40.3041 89.5934 40.1981C89.3963 40.0922 89.1788 40.03 88.9556 40.0157L69.3734 38.7353H69.2084V38.6627Z" fill="#231F20"/>
<path d="M75.6566 52.6021C75.9602 52.3711 76.2506 52.1401 76.5476 51.9421C77.3792 51.3217 78.2174 50.7145 79.049 50.1007C79.6034 49.6981 80.1512 49.2889 80.666 48.8335C81.1287 48.4393 81.5253 47.9736 81.8408 47.4541C82.0383 47.1041 82.1934 46.7319 82.3028 46.3453C82.3969 46.01 82.4653 45.668 82.5074 45.3223C82.5916 44.7719 82.4841 44.2092 82.2029 43.7286C81.9218 43.248 81.484 42.8786 80.963 42.6823C80.4055 42.4781 79.8024 42.4316 79.2202 42.5481C78.6379 42.6645 78.0991 42.9393 77.663 43.3423C77.4177 43.5355 77.1962 43.757 77.003 44.0023L76.9634 44.0485V43.9825C76.7198 43.4467 76.3163 42.9994 75.8084 42.7021C75.3438 42.4362 74.8114 42.3123 74.2772 42.3457C73.6085 42.379 72.9651 42.6119 72.4299 43.0142C71.8946 43.4165 71.4921 43.9698 71.2742 44.6029C71.1686 44.9347 71.1043 45.2783 71.0828 45.6259C71.0365 45.9896 71.0365 46.3577 71.0828 46.7215C71.1573 47.2602 71.3537 47.7748 71.657 48.2263C71.9678 48.6857 72.319 49.1164 72.7064 49.5133C73.2806 50.1205 73.868 50.7145 74.4488 51.3283C74.8382 51.7441 75.221 52.1731 75.6104 52.6021H75.6566Z" fill="#D1D3D4"/>
<path d="M63.3277 65.6501L78.1843 67.2803C78.3877 67.3018 78.584 67.3673 78.7597 67.4721C78.9353 67.5769 79.0861 67.7187 79.2016 67.8875C79.3171 68.0563 79.3945 68.2483 79.4286 68.45C79.4626 68.6517 79.4524 68.8584 79.3987 69.0557L76.6201 77.9723C76.5056 78.4067 76.2384 78.7852 75.8674 79.0386C75.4965 79.2919 75.0467 79.4031 74.6005 79.3517L59.8891 77.7215C59.6851 77.6973 59.489 77.6282 59.3148 77.5192C59.1407 77.4103 58.9928 77.2641 58.8818 77.0913C58.7708 76.9185 58.6994 76.7232 58.6727 76.5195C58.646 76.3158 58.6647 76.1087 58.7275 75.9131L61.3345 66.9899C61.4584 66.5693 61.7255 66.2052 62.0894 65.9605C62.4534 65.7159 62.8914 65.6061 63.3277 65.6501Z" fill="white"/>
<path d="M74.825 79.7016C74.7349 79.7082 74.6444 79.7082 74.5544 79.7016L59.8496 78.0582C59.6025 78.0297 59.3647 77.9475 59.1527 77.8176C58.9407 77.6876 58.7595 77.513 58.622 77.3058C58.4818 77.0919 58.3902 76.8498 58.3537 76.5967C58.3172 76.3435 58.3367 76.0854 58.4108 75.8406L61.0508 66.9108C61.2008 66.4179 61.5168 65.9922 61.9451 65.7059C62.3734 65.4195 62.8876 65.2903 63.4004 65.34L78.2504 66.9702C78.502 66.9985 78.7447 67.0803 78.9621 67.21C79.1795 67.3398 79.3667 67.5146 79.511 67.7226C79.6515 67.9301 79.746 68.1652 79.7882 68.4123C79.8303 68.6593 79.819 68.9125 79.7552 69.1548L76.97 78.0912C76.8374 78.5571 76.5559 78.9667 76.1685 79.2575C75.7812 79.5483 75.3093 79.7043 74.825 79.7016ZM63.11 65.967C62.7814 65.9726 62.4632 66.0823 62.201 66.2804C61.9389 66.4785 61.7464 66.7547 61.6514 67.0692L59.0444 75.999C58.9978 76.153 58.9849 76.3152 59.0065 76.4747C59.0282 76.6341 59.0838 76.787 59.1698 76.923C59.2564 77.0493 59.3688 77.1559 59.4997 77.2355C59.6305 77.3151 59.7768 77.3661 59.9288 77.385L74.6336 79.0416C75.0018 79.0843 75.3731 78.9931 75.6797 78.7847C75.9862 78.5763 76.2076 78.2645 76.3034 77.9064L79.082 68.97C79.1221 68.8215 79.1294 68.666 79.1032 68.5143C79.0769 68.3627 79.0179 68.2186 78.9302 68.0922C78.8404 67.961 78.7229 67.8511 78.5861 67.7701C78.4493 67.6892 78.2964 67.6392 78.1382 67.6236L63.2948 65.9934C63.2344 65.9775 63.1724 65.9687 63.11 65.967V65.967Z" fill="#231F20"/>
<path d="M93.5492 59.9015L114.128 61.9871C114.332 61.9898 114.534 62.0383 114.717 62.1288C114.9 62.2194 115.061 62.3498 115.188 62.5105C115.314 62.6711 115.403 62.858 115.448 63.0575C115.493 63.257 115.493 63.464 115.448 63.6634L112.042 76.3354C111.894 76.7702 111.598 77.1396 111.207 77.3805C110.815 77.6213 110.353 77.7185 109.897 77.6554L89.3318 75.0154C89.1349 75.0055 88.9427 74.9516 88.7693 74.8577C88.596 74.7638 88.4459 74.6323 88.33 74.4727C88.2142 74.3132 88.1356 74.1298 88.0999 73.9359C88.0642 73.742 88.0725 73.5426 88.124 73.3523L91.5032 61.1951C91.6451 60.7781 91.9255 60.4223 92.2977 60.1869C92.67 59.9516 93.1117 59.8508 93.5492 59.9015V59.9015Z" fill="white"/>
<path d="M110.175 77.9658C110.076 77.9724 109.976 77.9724 109.878 77.9658L89.3186 75.3258C89.056 75.3051 88.8014 75.2263 88.5731 75.095C88.3448 74.9637 88.1485 74.7833 87.9986 74.5668C87.8698 74.3752 87.7852 74.1574 87.751 73.9291C87.7168 73.7008 87.7337 73.4677 87.8006 73.2468L91.1798 61.0896C91.3404 60.6034 91.6638 60.1876 92.0955 59.9123C92.5272 59.6369 93.0406 59.5189 93.5491 59.5782L114.128 61.6572C114.406 61.6768 114.676 61.7567 114.92 61.8912C115.164 62.0256 115.375 62.2115 115.54 62.436C115.672 62.6262 115.76 62.8433 115.797 63.0715C115.835 63.2998 115.822 63.5336 115.758 63.756L112.386 76.4016C112.234 76.8653 111.937 77.2678 111.539 77.5495C111.141 77.8312 110.662 77.9772 110.175 77.9658V77.9658ZM93.3643 60.2184C93.0344 60.2133 92.7111 60.3109 92.4391 60.4977C92.1671 60.6846 91.96 60.9514 91.8463 61.2612L88.4672 73.4184C88.4306 73.5478 88.4216 73.6834 88.441 73.8165C88.4603 73.9495 88.5075 74.077 88.5794 74.1906C88.6746 74.3239 88.7977 74.4349 88.9402 74.5158C89.0827 74.5967 89.2411 74.6457 89.4044 74.6592L109.963 77.2992C110.337 77.359 110.72 77.287 111.046 77.0956C111.372 76.9041 111.622 76.6051 111.752 76.2498L115.151 63.5778C115.189 63.449 115.198 63.3132 115.176 63.1806C115.154 63.048 115.103 62.9221 115.026 62.8122C114.916 62.6664 114.776 62.5465 114.615 62.461C114.455 62.3754 114.277 62.3263 114.095 62.3172L93.5162 60.2316H93.3643V60.2184Z" fill="#231F20"/>
<path d="M104.182 73.887L106.624 74.1906L108.346 67.8216L105.904 67.551L104.182 73.887Z" fill="#D1D3D4"/>
<path d="M106.624 74.2963L104.182 73.9993C104.167 73.997 104.153 73.9917 104.141 73.9836C104.128 73.9755 104.117 73.9649 104.109 73.9525C104.101 73.94 104.096 73.926 104.094 73.9113C104.091 73.8966 104.092 73.8816 104.096 73.8673L105.819 67.5313C105.823 67.5061 105.838 67.4838 105.859 67.469C105.88 67.4543 105.905 67.4482 105.931 67.4521L108.373 67.7293C108.388 67.731 108.402 67.7361 108.414 67.7441C108.427 67.7521 108.438 67.7628 108.445 67.7755C108.456 67.8009 108.456 67.8293 108.445 67.8547L106.723 74.2237C106.716 74.2446 106.703 74.2628 106.685 74.2758C106.667 74.2889 106.646 74.296 106.624 74.2963ZM104.314 73.8013L106.545 74.0785L108.214 67.9141L105.984 67.6633L104.314 73.8013Z" fill="#D1D3D4"/>
<path d="M104.842 67.9733C104.842 67.9733 102.862 67.2473 102.334 65.9933C101.806 64.7393 102.156 62.7395 101.859 62.6009C101.582 62.5194 101.288 62.5251 101.015 62.6172C100.742 62.7094 100.504 62.8835 100.334 63.1157C99.8588 63.7229 99.5816 65.5841 99.9776 66.8579C99.9776 66.8579 97.3376 66.5345 96.1496 66.4025C94.9616 66.2705 94.4666 67.2671 95.0408 67.7621C95.0408 67.7621 94.0706 67.7621 94.1894 68.6333C94.3082 69.5045 94.6382 69.5705 95.1596 69.6365C95.1596 69.6365 94.4996 69.7091 94.4996 70.3493C94.4996 70.9895 95.3048 71.2403 95.3048 71.2403C95.1996 71.265 95.1013 71.3131 95.0173 71.381C94.9332 71.4489 94.8655 71.5349 94.8192 71.6325C94.7729 71.7302 94.7492 71.837 94.7499 71.9451C94.7505 72.0531 94.7755 72.1597 94.823 72.2567C95.1794 73.0091 96.4466 73.0949 99.443 73.2797C102.439 73.4645 103.476 72.9233 103.476 72.9233L104.842 67.9733Z" fill="#D1D3D4"/>
<path d="M100.671 73.4514C100.308 73.4514 99.905 73.4514 99.4496 73.4118C96.473 73.227 95.1134 73.1412 94.724 72.3294C94.6706 72.2286 94.6395 72.1176 94.6327 72.0037C94.6258 71.8899 94.6435 71.7759 94.6844 71.6694C94.7642 71.5045 94.8934 71.3684 95.054 71.2801C94.8754 71.2025 94.7205 71.0794 94.6046 70.923C94.4887 70.7666 94.4161 70.5824 94.394 70.389C94.3862 70.2568 94.4154 70.125 94.4783 70.0084C94.5413 69.8918 94.6355 69.7951 94.7504 69.729C94.394 69.6234 94.1696 69.399 94.0904 68.706C94.0694 68.5902 94.0739 68.4711 94.1035 68.3572C94.1331 68.2432 94.1872 68.137 94.262 68.046C94.4128 67.883 94.616 67.7779 94.8362 67.749C94.761 67.6413 94.7154 67.5158 94.7038 67.3849C94.6922 67.2541 94.7151 67.1225 94.7702 67.0032C94.8995 66.7557 95.1062 66.5572 95.3588 66.438C95.6114 66.3189 95.8961 66.2856 96.1694 66.3432C97.1792 66.4554 99.2582 66.7062 99.8456 66.7788C99.5024 65.4588 99.773 63.7098 100.261 63.0894C100.444 62.8438 100.697 62.6598 100.988 62.5619C101.278 62.464 101.591 62.4569 101.885 62.5416C102.063 62.6274 102.07 62.9442 102.083 63.6372C102.042 64.4338 102.152 65.2309 102.406 65.9868C102.934 67.1616 104.842 67.8811 104.862 67.8877C104.885 67.8979 104.904 67.9162 104.915 67.9392C104.926 67.9623 104.928 67.9885 104.921 68.013L103.601 72.9894C103.593 73.0142 103.577 73.0354 103.555 73.0488C103.502 73.0554 102.763 73.4514 100.671 73.4514ZM95.945 66.5016C95.7473 66.4832 95.5486 66.5235 95.3737 66.6174C95.1988 66.7113 95.0554 66.8547 94.9616 67.0296C94.9092 67.1408 94.8957 67.2662 94.9233 67.3859C94.9508 67.5056 95.0178 67.6126 95.1134 67.6896C95.1257 67.7058 95.1324 67.7255 95.1324 67.7457C95.1324 67.766 95.1257 67.7857 95.1134 67.8018C95.1066 67.821 95.0941 67.8376 95.0776 67.8494C95.061 67.8612 95.0413 67.8677 95.021 67.8679C94.7882 67.8713 94.5649 67.9606 94.394 68.1186C94.3369 68.1889 94.2961 68.2709 94.2744 68.3587C94.2527 68.4466 94.2507 68.5381 94.2686 68.6268C94.3742 69.4452 94.6712 69.4783 95.153 69.5377C95.1786 69.5409 95.2022 69.5534 95.2193 69.5729C95.2363 69.5923 95.2456 69.6174 95.2454 69.6432C95.2454 69.6684 95.2359 69.6926 95.2188 69.711C95.2016 69.7294 95.1781 69.7406 95.153 69.7422C95.153 69.7422 94.5656 69.8214 94.5854 70.356C94.6052 70.8906 95.3114 71.148 95.318 71.148C95.3376 71.1569 95.3545 71.1707 95.3672 71.1881C95.3799 71.2054 95.388 71.2257 95.3906 71.247C95.3903 71.2691 95.3832 71.2904 95.3701 71.3082C95.3571 71.3259 95.3389 71.3392 95.318 71.346C95.1214 71.4111 94.9565 71.5478 94.856 71.7288C94.8257 71.808 94.8135 71.893 94.8204 71.9775C94.8272 72.0621 94.8529 72.144 94.8956 72.2172C95.2322 72.9234 96.5522 73.0027 99.443 73.1875C102.083 73.3525 103.172 72.9433 103.403 72.8575L104.723 68.013C104.327 67.8546 102.743 67.155 102.241 66.033C101.973 65.2529 101.856 64.4283 101.898 63.6042C101.921 63.2962 101.895 62.9864 101.819 62.6868C101.565 62.6203 101.296 62.6312 101.048 62.7183C100.8 62.8053 100.583 62.9644 100.426 63.1753C99.9578 63.7693 99.707 65.6106 100.083 66.8316C100.093 66.8464 100.098 66.8636 100.098 66.8811C100.098 66.8987 100.093 66.9158 100.083 66.9306C100.072 66.9432 100.057 66.9528 100.041 66.9585C100.025 66.9643 100.008 66.966 99.9908 66.9636C99.9908 66.9636 97.3508 66.6402 96.1694 66.5082L95.945 66.5016Z" fill="#D1D3D4"/>
<path d="M79.3724 103.732L101.812 106.319C102.639 106.378 103.461 106.146 104.135 105.664C104.81 105.183 105.296 104.481 105.508 103.679L109.039 90.3541C109.157 89.9899 109.193 89.6046 109.147 89.2249C109.1 88.8452 108.972 88.4802 108.77 88.155C108.569 87.8298 108.299 87.5524 107.98 87.3417C107.66 87.1311 107.299 86.9925 106.921 86.9353L84.4214 84.0709C83.5727 83.9944 82.7246 84.2228 82.0291 84.715C81.3337 85.2073 80.8363 85.9313 80.6264 86.7571L77.1746 100.34C77.0618 100.708 77.0311 101.097 77.0844 101.478C77.1377 101.86 77.2739 102.225 77.4833 102.548C77.6927 102.871 77.9704 103.145 78.2967 103.349C78.623 103.554 78.9902 103.685 79.3724 103.732Z" fill="white"/>
<path d="M102.123 106.669H101.746L79.3063 104.082C78.8887 104.041 78.485 103.91 78.1236 103.697C77.7622 103.483 77.4518 103.194 77.2141 102.848C76.9647 102.475 76.7985 102.052 76.7268 101.609C76.655 101.166 76.6794 100.713 76.7983 100.28L80.2501 86.6976C80.4887 85.7987 81.0361 85.0123 81.7964 84.4765C82.5566 83.9407 83.4813 83.6896 84.4081 83.7672L106.908 86.625C107.313 86.6746 107.703 86.8103 108.051 87.0232C108.399 87.2361 108.698 87.5212 108.927 87.8592C109.169 88.2419 109.328 88.6713 109.392 89.1193C109.457 89.5674 109.427 90.0241 109.303 90.4596L105.772 103.785C105.546 104.589 105.071 105.301 104.416 105.82C103.76 106.338 102.957 106.635 102.123 106.669V106.669ZM79.4053 103.409L101.845 105.996C102.594 106.043 103.335 105.829 103.944 105.391C104.553 104.953 104.991 104.318 105.185 103.594L108.69 90.2616C108.794 89.918 108.823 89.5556 108.772 89.1999C108.722 88.8441 108.595 88.5037 108.399 88.2024C108.224 87.9425 107.995 87.7236 107.727 87.5606C107.459 87.3977 107.159 87.2947 106.848 87.2586L84.3487 84.3942C83.5803 84.3297 82.8138 84.5396 82.1854 84.9866C81.5571 85.4337 81.1076 86.0891 80.9167 86.8362L77.4649 100.419C77.3693 100.761 77.3481 101.119 77.4027 101.47C77.4574 101.82 77.5866 102.155 77.7817 102.452C77.9674 102.719 78.2086 102.943 78.4889 103.108C78.7691 103.273 79.0817 103.376 79.4053 103.409V103.409Z" fill="#231F20"/>
<path d="M86.6455 94.9542L94.5655 101.396C94.7194 101.493 94.8946 101.552 95.0762 101.568C95.2578 101.584 95.4404 101.555 95.6087 101.485C95.7771 101.415 95.926 101.306 96.0431 101.166C96.1602 101.027 96.242 100.861 96.2815 100.683L99.0469 90.1229C99.1023 89.9542 99.1068 89.7729 99.0599 89.6016C99.0129 89.4303 98.9165 89.2767 98.7828 89.1598C98.649 89.0429 98.4838 88.9681 98.3078 88.9445C98.1317 88.921 97.9527 88.9498 97.7929 89.0274L87.0877 93.1655C86.9142 93.2249 86.7584 93.3268 86.6345 93.462C86.5107 93.5972 86.4227 93.7612 86.3787 93.9392C86.3347 94.1172 86.3361 94.3034 86.3827 94.4807C86.4293 94.658 86.5196 94.8208 86.6455 94.9542V94.9542Z" fill="#D1D3D4"/>
<path d="M94.6249 43.1575L118.332 45.6259C118.756 45.639 119.171 45.5038 119.506 45.2436C119.841 44.9833 120.075 44.6143 120.167 44.2003L124.021 28.3603C124.083 28.179 124.103 27.9863 124.079 27.7963C124.056 27.6063 123.99 27.4241 123.887 27.263C123.784 27.1019 123.645 26.9662 123.482 26.866C123.319 26.7657 123.136 26.7035 122.946 26.6839L99.2911 24.7039C98.8833 24.704 98.4877 24.8425 98.1688 25.0966C97.8499 25.3508 97.6266 25.7056 97.5355 26.1031L93.6415 41.4877C93.5766 41.6616 93.5513 41.8479 93.5675 42.0329C93.5837 42.2179 93.6411 42.3969 93.7353 42.5569C93.8295 42.7169 93.9583 42.8539 94.1122 42.9578C94.2661 43.0617 94.4413 43.1299 94.6249 43.1575V43.1575Z" fill="white"/>
<path d="M99.1591 24.6971H99.2449L122.899 26.6771C123.09 26.6967 123.273 26.759 123.436 26.8592C123.599 26.9595 123.738 27.0952 123.841 27.2563C123.944 27.4173 124.01 27.5996 124.033 27.7896C124.057 27.9796 124.037 28.1723 123.975 28.3535L120.121 44.1935C120.031 44.5838 119.818 44.9344 119.512 45.1927C119.206 45.451 118.824 45.603 118.425 45.6257H118.286L94.6249 43.1573C94.4413 43.1298 94.2662 43.0615 94.1122 42.9576C93.9583 42.8537 93.8296 42.7168 93.7353 42.5568C93.6411 42.3968 93.5838 42.2178 93.5676 42.0328C93.5513 41.8478 93.5766 41.6615 93.6415 41.4875L97.5356 26.1029C97.6247 25.7233 97.8329 25.382 98.1297 25.1291C98.4266 24.8762 98.7965 24.7248 99.1856 24.6971H99.1591ZM99.1856 24.0371C98.6503 24.0659 98.1385 24.2663 97.726 24.6086C97.3135 24.951 97.0222 25.4171 96.8954 25.9379L93.0013 41.3225C92.9201 41.6159 92.9028 41.9233 92.9506 42.2239C92.9984 42.5245 93.1103 42.8113 93.2786 43.0649C93.424 43.2757 93.6142 43.4518 93.8355 43.5807C94.0568 43.7096 94.3038 43.7882 94.5589 43.8107L118.26 46.2791C118.33 46.2855 118.4 46.2855 118.471 46.2791C119.019 46.2557 119.544 46.0533 119.966 45.7028C120.388 45.3523 120.684 44.8732 120.807 44.3387L124.662 28.4987C124.739 28.2046 124.752 27.8972 124.699 27.5977C124.647 27.2981 124.531 27.0133 124.358 26.7629C124.203 26.5437 124.001 26.3615 123.767 26.2292C123.533 26.0968 123.273 26.0177 123.005 25.9973L99.3506 24.0173L99.1856 24.0371Z" fill="#231F20"/>
<path d="M107.825 38.6231C107.773 38.6236 107.721 38.6119 107.674 38.589C107.627 38.5661 107.586 38.5326 107.554 38.4911L97.925 25.2317C97.8749 25.1603 97.8544 25.0722 97.868 24.986C97.8815 24.8998 97.928 24.8223 97.9976 24.7697C98.0331 24.7444 98.0732 24.7263 98.1157 24.7166C98.1582 24.7069 98.2022 24.7056 98.2451 24.713C98.2881 24.7204 98.3291 24.7362 98.366 24.7595C98.4028 24.7828 98.4346 24.8132 98.4596 24.8489L107.851 37.8377L123.619 26.9015C123.692 26.8527 123.781 26.8344 123.867 26.8504C123.954 26.8664 124.03 26.9156 124.081 26.9873C124.106 27.0231 124.123 27.0636 124.133 27.1064C124.142 27.1491 124.143 27.1932 124.135 27.2362C124.127 27.2792 124.11 27.3202 124.086 27.3567C124.062 27.3933 124.031 27.4248 123.995 27.4493L107.99 38.5637C107.941 38.5977 107.884 38.6182 107.825 38.6231Z" fill="#D1D3D4"/>
<path d="M93.7735 42.9859C93.7189 42.9865 93.665 42.9736 93.6166 42.9483C93.5682 42.9229 93.5269 42.886 93.4963 42.8407C93.4482 42.7669 93.4309 42.6772 93.4482 42.5909C93.4655 42.5045 93.5159 42.4283 93.5887 42.3787L105.284 34.8217C105.357 34.774 105.445 34.7569 105.531 34.7742C105.616 34.7915 105.691 34.8418 105.739 34.9141C105.787 34.9879 105.805 35.0776 105.787 35.164C105.77 35.2503 105.72 35.3265 105.647 35.3761L93.9649 42.9331C93.9086 42.9712 93.8414 42.9898 93.7735 42.9859V42.9859Z" fill="#D1D3D4"/>
<path d="M119.382 45.6391C119.332 45.6394 119.283 45.6282 119.238 45.6065C119.194 45.5847 119.155 45.553 119.124 45.5137L111.363 35.8447C111.309 35.7764 111.284 35.6894 111.294 35.6029C111.304 35.5163 111.347 35.4372 111.415 35.3827C111.449 35.3552 111.488 35.3346 111.529 35.3223C111.571 35.31 111.614 35.3062 111.658 35.3112C111.701 35.3161 111.742 35.3297 111.78 35.351C111.818 35.3724 111.851 35.4011 111.877 35.4355L119.639 45.1045C119.667 45.1376 119.688 45.176 119.701 45.2174C119.714 45.2587 119.718 45.3022 119.714 45.3453C119.709 45.3884 119.696 45.4302 119.676 45.4682C119.655 45.5062 119.627 45.5396 119.593 45.5665C119.532 45.6119 119.458 45.6373 119.382 45.6391V45.6391Z" fill="#D1D3D4"/>
<path d="M47.3953 74.9561C49.0115 71.7336 51.2268 68.8486 53.9227 66.4552C58.2523 62.713 60.8461 59.9938 59.4865 59.2546C58.1269 58.5154 53.6257 61.7099 53.6257 61.7099L57.0313 49.2358C57.0313 49.2358 49.5271 54.1792 47.3953 58.3834C45.2635 62.5876 41.0593 71.4581 41.0593 71.4581L47.3953 74.9561Z" fill="white"/>
<path d="M47.3953 75.2862C47.34 75.2864 47.2856 75.2728 47.2369 75.2466L40.9009 71.742C40.8277 71.7014 40.7727 71.6345 40.7469 71.5548C40.7212 71.4752 40.7267 71.3887 40.7623 71.313C40.8019 71.2272 44.9929 62.3964 47.1049 58.2384C49.2169 54.0804 56.5363 49.1634 56.8465 48.9588C56.9025 48.9212 56.9688 48.9017 57.0362 48.9029C57.1037 48.9041 57.1691 48.9259 57.2238 48.9655C57.2785 49.005 57.3197 49.0604 57.3419 49.1241C57.3641 49.1878 57.3663 49.2568 57.3481 49.3218L54.1801 60.9312C55.6255 59.9808 58.4569 58.2912 59.6449 58.9512C59.7906 59.0218 59.9158 59.1287 60.0082 59.2616C60.1007 59.3945 60.1574 59.549 60.1729 59.7102C60.2983 60.8586 58.5493 62.8782 54.1405 66.693C51.4822 69.0567 49.2964 71.9032 47.6989 75.0816C47.6801 75.1234 47.6528 75.1608 47.6187 75.1915C47.5846 75.2222 47.5445 75.2455 47.5009 75.2598C47.4677 75.2751 47.4319 75.2841 47.3953 75.2862V75.2862ZM41.4883 71.3262L47.2501 74.5074C48.8826 71.3726 51.0695 68.5596 53.7049 66.2046C55.1767 64.9374 59.6449 61.0632 59.5195 59.796C59.513 59.7409 59.4917 59.6885 59.4581 59.6444C59.4244 59.6003 59.3795 59.566 59.3281 59.5452C58.5097 59.0964 55.6123 60.7002 53.8171 61.9806C53.761 62.0181 53.6949 62.0378 53.6273 62.0373C53.5598 62.0367 53.494 62.0159 53.4385 61.9774C53.383 61.939 53.3403 61.8848 53.316 61.8218C53.2917 61.7588 53.287 61.6899 53.3023 61.6242L56.4703 50.0214C54.5431 51.381 49.3687 55.2288 47.6923 58.5354C45.7849 62.271 42.2209 69.8016 41.4883 71.3196V71.3262Z" fill="#231F20"/>
<path d="M93.0871 26.2416L71.8615 24.387C71.7746 24.3786 71.6943 24.3367 71.6376 24.2702C71.581 24.2037 71.5524 24.1178 71.5579 24.0306C71.5613 23.9872 71.5731 23.9449 71.5929 23.9061C71.6126 23.8673 71.6398 23.8328 71.673 23.8046C71.7061 23.7764 71.7445 23.755 71.7859 23.7417C71.8273 23.7284 71.871 23.7234 71.9143 23.727L93.1135 25.5816C93.2011 25.5816 93.285 25.6163 93.3469 25.6782C93.4088 25.7401 93.4435 25.824 93.4435 25.9116C93.4435 25.9991 93.4088 26.083 93.3469 26.1449C93.285 26.2068 93.2011 26.2416 93.1135 26.2416H93.0871Z" fill="#231F20"/>
<path d="M87.5761 29.7131L70.4755 28.1753C70.4324 28.172 70.3904 28.1601 70.3519 28.1403C70.3135 28.1204 70.2794 28.0931 70.2517 28.0599C70.224 28.0266 70.2033 27.9882 70.1907 27.9468C70.1781 27.9054 70.174 27.8619 70.1785 27.8189C70.1819 27.7755 70.1937 27.7332 70.2135 27.6944C70.2332 27.6557 70.2604 27.6212 70.2936 27.5929C70.3267 27.5647 70.3651 27.5433 70.4065 27.53C70.4479 27.5167 70.4916 27.5117 70.5349 27.5153L87.6355 29.0597C87.723 29.0641 87.8052 29.103 87.864 29.168C87.9228 29.233 87.9534 29.3187 87.949 29.4062C87.9446 29.4937 87.9057 29.5759 87.8407 29.6347C87.7757 29.6935 87.69 29.7241 87.6025 29.7197L87.5761 29.7131Z" fill="#231F20"/>
<path d="M41.2111 29.1125C41.2111 29.1125 45.6793 36.4782 44.6431 37.9302C43.6069 39.3822 40.3729 38.2668 40.3729 38.2668" fill="white"/>
<path d="M42.7094 39.006C41.8792 38.9847 41.0565 38.8424 40.2674 38.5836C40.2241 38.5693 40.184 38.5466 40.1494 38.5168C40.1148 38.487 40.0865 38.4507 40.066 38.4099C40.0454 38.3692 40.0331 38.3248 40.0298 38.2793C40.0264 38.2338 40.032 38.188 40.0463 38.1447C40.0606 38.1014 40.0833 38.0613 40.1131 38.0267C40.1429 37.9921 40.1792 37.9638 40.22 37.9433C40.2607 37.9227 40.3051 37.9104 40.3506 37.9071C40.3961 37.9037 40.4419 37.9093 40.4852 37.9236C41.3168 38.2074 43.64 38.7288 44.3726 37.7058C45.0326 36.828 42.7358 32.2344 40.9274 29.2512C40.9047 29.214 40.8895 29.1726 40.8828 29.1295C40.8762 29.0864 40.8781 29.0424 40.8885 29.0001C40.899 28.9578 40.9177 28.9179 40.9436 28.8828C40.9695 28.8478 41.0022 28.8182 41.0396 28.7958C41.1152 28.7516 41.205 28.7386 41.2901 28.7595C41.3751 28.7805 41.4486 28.8337 41.495 28.908C42.2606 30.1686 46.0226 36.5376 44.9072 38.0886C44.6411 38.4064 44.3026 38.6556 43.9201 38.8152C43.5377 38.9749 43.1224 39.0403 42.7094 39.006V39.006Z" fill="#231F20"/>
<path d="M15.4249 42.6624C12.1249 42.7218 9.25395 41.5536 5.67015 39.3624C4.65375 38.7486 3.49215 37.7718 3.81555 36.6366C3.99737 36.2762 4.13477 35.895 4.22475 35.5014C4.22475 34.8414 3.56475 34.3926 3.03015 33.9966C2.14272 33.3313 1.46181 32.4283 1.06619 31.3921C0.670562 30.3559 0.5764 29.2289 0.794586 28.1414C1.01277 27.0539 1.53439 26.0504 2.2991 25.247C3.06381 24.4436 4.04035 23.8732 5.11574 23.6016C4.16696 22.6571 3.50505 21.4632 3.20663 20.1581C2.90821 18.853 2.98547 17.4901 3.42949 16.2271C3.87351 14.9641 4.66612 13.8527 5.71558 13.0215C6.76504 12.1903 8.02843 11.6732 9.35954 11.5302C8.41574 11.6292 10.3759 6.25023 10.6795 5.74863C11.8745 3.90042 13.6545 2.50615 15.7351 1.78863C17.1105 1.3249 18.5704 1.16616 20.0133 1.32344C21.4562 1.48073 22.8476 1.95026 24.0907 2.69943C24.6649 1.24743 26.2951 0.435629 27.8527 0.369629C29.4177 0.4013 30.96 0.749281 32.3869 1.39263C34.1227 2.05263 36.0038 2.89743 36.7562 4.58703C36.8731 4.95542 37.0516 5.30133 37.2841 5.61003C37.665 5.92201 38.1194 6.13107 38.6041 6.21723C43.8313 7.84743 44.8741 15.7146 41.2837 19.0608C40.6237 19.6482 39.9637 19.3578 39.4357 20.0838C39.0925 20.5656 39.0463 21.8988 38.8615 22.5126C38.3957 24.0028 37.781 25.4423 37.0267 26.8092C35.3672 29.675 33.3733 32.3337 31.0867 34.7292C28.3166 37.8403 24.8206 40.2186 20.9095 41.6526C19.147 42.28 17.2953 42.6209 15.4249 42.6624V42.6624Z" fill="white"/>
<path d="M15.1742 42.9924C12.2108 42.9924 9.386 42.0156 5.5118 39.6528C3.479 38.4186 3.3008 37.2834 3.5318 36.5508C3.58557 36.3802 3.65402 36.2146 3.73639 36.0558C3.83809 35.8839 3.90325 35.693 3.9278 35.4948C3.9278 35.0526 3.46579 34.7028 3.00379 34.3662L2.8718 34.2672C1.96373 33.5952 1.25637 32.688 0.826044 31.6435C0.395714 30.599 0.258741 29.4569 0.429904 28.3402C0.601067 27.2236 1.07387 26.1749 1.7973 25.3072C2.52073 24.4396 3.46733 23.7859 4.53499 23.4168C3.67767 22.4269 3.09765 21.2278 2.85385 19.9412C2.61005 18.6546 2.71117 17.3263 3.14694 16.0915C3.5827 14.8566 4.33757 13.7591 5.33486 12.9104C6.33214 12.0617 7.5363 11.4922 8.82499 11.2596C8.65999 9.8406 10.2308 5.8476 10.4156 5.5506C11.6493 3.63144 13.4928 2.18315 15.6494 1.4388C17.0115 0.978088 18.4548 0.807035 19.8869 0.936602C21.3189 1.06617 22.7081 1.4935 23.9654 2.1912C24.3794 1.5294 24.9528 0.982025 25.6331 0.59921C26.3134 0.216395 27.0788 0.0103699 27.8594 0C29.4697 0.0253725 31.0577 0.380262 32.5256 1.0428C34.301 1.7028 36.2612 2.5938 37.073 4.4154L37.1918 4.686C37.2679 4.9252 37.3863 5.14876 37.5416 5.346C37.817 5.57618 38.1463 5.73285 38.4986 5.8014L38.7098 5.8608C41.0726 6.6 42.8612 8.6922 43.4948 11.4642C44.1548 14.4474 43.4024 17.5098 41.5148 19.2654C41.2202 19.5207 40.8661 19.6977 40.4852 19.7802C40.1741 19.8241 39.8924 19.9874 39.6998 20.2356C39.5092 20.6799 39.3933 21.1527 39.3566 21.6348C39.3167 21.9484 39.2572 22.2592 39.1784 22.5654C38.6982 24.0712 38.0657 25.5241 37.2908 26.9016C35.6049 29.7688 33.5868 32.4271 31.2782 34.8216C28.4727 37.9728 24.9311 40.3807 20.969 41.8308C19.1977 42.4888 17.333 42.8608 15.4448 42.933H15.1742V42.9924ZM9.39259 11.8338C8.12466 11.9725 6.92179 12.4669 5.92273 13.2598C4.92367 14.0528 4.16914 15.112 3.74618 16.3154C3.32322 17.5187 3.24907 18.8171 3.53228 20.0607C3.81549 21.3044 4.44451 22.4427 5.3468 23.3442C5.38862 23.3856 5.41863 23.4374 5.43372 23.4942C5.4488 23.5511 5.44842 23.6109 5.43259 23.6676C5.41628 23.7233 5.38582 23.7739 5.34419 23.8144C5.30255 23.8548 5.25116 23.8839 5.19499 23.8986C4.1739 24.1514 3.24567 24.6892 2.51845 25.4492C1.79123 26.2093 1.29496 27.1604 1.08747 28.1916C0.87997 29.2229 0.969788 30.2919 1.34646 31.274C1.72313 32.2562 2.37114 33.1111 3.21499 33.7392L3.34699 33.8316C3.88819 34.2342 4.568 34.7292 4.5416 35.5212C4.51519 35.8092 4.42743 36.0883 4.2842 36.3396C4.22093 36.4657 4.16581 36.5958 4.1192 36.729C3.8552 37.6596 4.90459 38.5242 5.82859 39.0918C9.70279 41.448 12.4814 42.3918 15.4052 42.3324C17.224 42.2615 19.0198 41.9005 20.7248 41.2632C24.5859 39.8543 28.0358 37.5068 30.7634 34.4322C33.0421 32.0662 35.0357 29.4413 36.7034 26.6112C37.4526 25.2641 38.0629 23.8445 38.525 22.374C38.5932 22.0977 38.6461 21.8179 38.6834 21.5358C38.7226 20.9494 38.8798 20.377 39.1454 19.8528C39.4229 19.4801 39.8305 19.2256 40.2872 19.14C40.5657 19.0876 40.8253 18.9623 41.0396 18.777C42.7556 17.1864 43.4552 14.3682 42.8282 11.616C42.2408 9.0354 40.6568 7.1676 38.4854 6.4944L38.2874 6.4284C37.818 6.32957 37.3858 6.10089 37.04 5.7684C36.8213 5.51553 36.6553 5.2216 36.5516 4.9038C36.5516 4.8246 36.4856 4.7388 36.446 4.6596C35.7398 3.069 33.9182 2.2638 32.2616 1.6368C30.8773 1.00755 29.3796 0.666245 27.8594 0.633599C26.5394 0.692999 24.9422 1.3728 24.3878 2.7588C24.3691 2.8033 24.3412 2.84334 24.3059 2.87633C24.2707 2.90931 24.2288 2.93448 24.1832 2.9502C24.0942 2.98548 23.995 2.98548 23.906 2.9502C22.7067 2.22238 21.3623 1.76656 19.9676 1.61489C18.5729 1.46322 17.1619 1.61939 15.8342 2.0724C13.8213 2.76497 12.1006 4.11592 10.9502 5.907C10.6532 6.3888 9.26059 10.4346 9.43879 11.187C9.50346 11.204 9.56143 11.2402 9.60504 11.2909C9.64865 11.3416 9.67583 11.4043 9.683 11.4708C9.69227 11.5574 9.66696 11.6441 9.61256 11.7121C9.55816 11.7801 9.4791 11.8238 9.39259 11.8338V11.8338Z" fill="#231F20"/>
<path d="M40.505 19.2324C40.7423 19.3635 40.9527 19.5382 41.1254 19.7472C41.8547 20.6882 42.3113 21.8115 42.4454 22.9944C42.8282 25.4166 42.3728 27.8784 42.2606 30.3072C42.0406 35.0812 41.7106 39.8442 41.2706 44.5962C40.9934 47.6124 33.1592 47.3748 31.8128 46.4178L32.585 58.41L16.3754 51.4668L17.4314 41.613C17.4314 41.613 22.7576 41.8572 26.051 35.8116C26.9835 33.9842 27.6503 32.0329 28.031 30.0168C28.4072 28.3008 29.219 25.8522 29.1728 24.1164C29.116 23.3366 28.9448 22.5694 28.6646 21.8394C29.3263 22.1822 30.095 22.2555 30.8096 22.044C31.062 21.911 31.2818 21.7236 31.453 21.4953C31.6242 21.2671 31.7426 21.0036 31.7996 20.724C31.903 20.1557 31.9208 19.5751 31.8524 19.0014C32.194 19.2099 32.575 19.3457 32.9715 19.4002C33.3679 19.4548 33.7714 19.4271 34.1567 19.3187C34.542 19.2103 34.9007 19.0236 35.2106 18.7703C35.5205 18.517 35.7747 18.2025 35.9576 17.8464C36.1358 18.5988 37.0532 18.8562 37.8188 18.975C38.9078 19.1334 39.7262 18.81 40.505 19.2324Z" fill="white"/>
<path d="M32.585 58.74C32.5416 58.7499 32.4965 58.7499 32.453 58.74L16.2434 51.7968C16.179 51.7671 16.1253 51.7182 16.0899 51.6567C16.0544 51.5952 16.0389 51.5243 16.0454 51.4536L17.1014 41.6064C17.1112 41.523 17.1519 41.4463 17.2154 41.3914C17.2789 41.3364 17.3607 41.3072 17.4446 41.3094C17.6492 41.3094 22.6124 41.4612 25.7606 35.6796C26.6704 33.8794 27.3215 31.9596 27.6944 29.9772C27.8 29.5086 27.932 28.9872 28.0706 28.446C28.5002 27.0507 28.7551 25.6075 28.8296 24.1494C28.7758 23.4026 28.6089 22.6682 28.3346 21.9714C28.3142 21.9122 28.3112 21.8483 28.3258 21.7874C28.3404 21.7264 28.372 21.6709 28.417 21.6273C28.462 21.5837 28.5185 21.5538 28.5799 21.5411C28.6413 21.5284 28.705 21.5334 28.7636 21.5556C29.3458 21.8617 30.0213 21.9393 30.6578 21.7734C30.8677 21.659 31.0491 21.4986 31.1885 21.3044C31.3279 21.1101 31.4218 20.8869 31.463 20.6514C31.5614 20.118 31.577 19.5726 31.5092 19.0344C31.5039 18.9723 31.5166 18.91 31.5459 18.855C31.5752 18.7999 31.6197 18.7545 31.6742 18.7242C31.7269 18.6922 31.7874 18.6752 31.8491 18.6752C31.9108 18.6752 31.9713 18.6922 32.024 18.7242C32.3284 18.9018 32.6658 19.0153 33.0156 19.0578C33.3654 19.1003 33.7202 19.071 34.0583 18.9715C34.3963 18.872 34.7104 18.7045 34.9814 18.4792C35.2524 18.254 35.4746 17.9758 35.6342 17.6616C35.6634 17.6001 35.7106 17.5488 35.7695 17.5147C35.8284 17.4805 35.8963 17.465 35.9642 17.4702C36.033 17.4756 36.0984 17.5028 36.1506 17.5479C36.2029 17.593 36.2393 17.6537 36.2546 17.721C36.3602 18.1632 36.875 18.447 37.8452 18.6054C38.2324 18.656 38.6234 18.6715 39.0134 18.6516C39.5793 18.5879 40.1519 18.6791 40.67 18.9156C40.9415 19.0662 41.1831 19.2653 41.3828 19.503C42.1596 20.4951 42.638 21.6878 42.7622 22.9416C42.9763 24.6951 42.9763 26.4681 42.7622 28.2216C42.7028 28.9212 42.6434 29.6208 42.6104 30.3138C42.3926 35.0724 42.056 39.8838 41.6204 44.616C41.5676 45.2034 41.2244 46.0284 39.9242 46.596C37.7594 47.5926 33.872 47.5002 32.1956 46.9194L32.9282 58.3572C32.9312 58.4134 32.9201 58.4693 32.8959 58.5201C32.8716 58.5708 32.8351 58.6146 32.7896 58.6476C32.7337 58.7005 32.6616 58.733 32.585 58.74V58.74ZM16.745 51.2556L32.2088 57.9216L31.4762 46.464C31.4739 46.4016 31.4886 46.3397 31.5189 46.2851C31.5491 46.2304 31.5937 46.185 31.6478 46.1538C31.7005 46.1218 31.761 46.1048 31.8227 46.1048C31.8844 46.1048 31.9449 46.1218 31.9976 46.1538C32.882 46.8138 37.3172 47.0976 39.6272 46.0416C40.439 45.6654 40.8812 45.1704 40.9472 44.5698C41.3828 39.8442 41.7194 35.046 41.9372 30.3006C41.9372 29.5944 42.0296 28.8816 42.0956 28.1754C42.3034 26.4746 42.3034 24.7547 42.0956 23.0538C41.9827 21.9298 41.5575 20.8599 40.868 19.965C40.7196 19.7919 40.5434 19.6447 40.3466 19.5294C39.9308 19.3518 39.4752 19.288 39.0266 19.3446C38.5969 19.3679 38.166 19.3502 37.7396 19.2918C37.0621 19.2295 36.423 18.9493 35.918 18.4932C35.4873 19.0401 34.8946 19.4367 34.2249 19.6263C33.5551 19.816 32.8425 19.789 32.189 19.5492C32.2106 19.9629 32.1795 20.3776 32.0966 20.7834C32.0307 21.1164 31.8909 21.4304 31.6876 21.7022C31.4843 21.9741 31.2226 22.1969 30.9218 22.3542C30.3518 22.569 29.723 22.569 29.153 22.3542C29.341 22.9173 29.4498 23.5037 29.4764 24.0966C29.4098 25.6176 29.1481 27.1238 28.6976 28.578C28.559 29.1126 28.427 29.6274 28.328 30.0828C27.9471 32.1262 27.2806 34.1058 26.348 35.9634C23.4572 41.2434 18.9494 41.9034 17.735 41.9034L16.745 51.2556Z" fill="#231F20"/>
<path d="M31.925 31.3897C31.925 30.1951 31.3244 29.0929 30.7106 28.0897C30.279 27.267 29.7249 26.5148 29.0672 25.8589C28.7422 25.5261 28.3476 25.2695 27.9117 25.1074C27.4758 24.9454 27.0093 24.8819 26.546 24.9217C26.1443 25.0081 25.7652 25.1779 25.4332 25.4201C25.1012 25.6622 24.8238 25.9714 24.6188 26.3275C24.2297 27.0507 24.0044 27.8505 23.9588 28.6705C23.8136 30.4584 24.1408 32.2531 24.9076 33.8748C25.6744 35.4965 26.8539 36.8881 28.328 37.9105L28.0772 37.6135" fill="white"/>
<path d="M28.3015 38.2931C28.2354 38.2919 28.1711 38.2712 28.1167 38.2337C26.5948 37.1725 25.3773 35.7313 24.5853 34.0535C23.7933 32.3757 23.4544 30.5197 23.6023 28.6703C23.6574 27.7965 23.9077 26.9463 24.3349 26.1821C24.5615 25.7826 24.8716 25.4366 25.2441 25.1678C25.6165 24.899 26.0425 24.7137 26.4931 24.6245C27.0004 24.5658 27.5143 24.6213 27.9974 24.7869C28.4804 24.9525 28.9203 25.224 29.2849 25.5815C29.9671 26.2576 30.5414 27.0344 30.9877 27.8849C31.5619 28.8551 32.2747 30.0629 32.2483 31.3895C32.2449 31.4764 32.2079 31.5587 32.1452 31.619C32.0824 31.6793 31.9987 31.713 31.9117 31.7129C31.8684 31.712 31.8256 31.7026 31.7859 31.6853C31.7462 31.6679 31.7103 31.6428 31.6803 31.6116C31.6503 31.5803 31.6267 31.5435 31.6109 31.5031C31.5951 31.4627 31.5874 31.4196 31.5883 31.3763C31.5883 30.2345 30.9283 29.1191 30.4201 28.2215C30.0047 27.4296 29.473 26.7043 28.8427 26.0699C28.5478 25.7775 28.192 25.5538 27.8007 25.4146C27.4094 25.2754 26.9922 25.2242 26.5789 25.2647C26.2228 25.342 25.887 25.4937 25.5935 25.7098C25.3001 25.9259 25.0556 26.2015 24.8761 26.5187C24.4926 27.1943 24.267 27.9479 24.2161 28.7231C24.0892 30.351 24.3648 31.9852 25.0185 33.4814C25.6723 34.9777 26.6842 36.2902 27.9649 37.3031C28.0188 37.2964 28.0735 37.3032 28.1242 37.3228C28.1748 37.3424 28.2199 37.3741 28.2553 37.4153L28.5061 37.7123C28.559 37.7725 28.5882 37.8499 28.5882 37.9301C28.5882 38.0102 28.559 38.0877 28.5061 38.1479C28.4587 38.2204 28.3856 38.2722 28.3015 38.2931V38.2931Z" fill="#231F20"/>
<path d="M12.9236 54.285L14.534 49.071L35.522 51.0972L36.7298 55.8888C36.7298 55.8888 25.7606 61.1028 12.9236 54.285Z" fill="white"/>
<path d="M26.6846 58.0997C21.8318 58.0881 17.057 56.8774 12.785 54.5753C12.7174 54.539 12.6647 54.4802 12.6358 54.4091C12.6069 54.3381 12.6036 54.2591 12.6266 54.1859L14.2304 48.9719C14.2527 48.9001 14.2989 48.838 14.3613 48.796C14.4237 48.754 14.4986 48.7345 14.5736 48.7409L35.5682 50.7737C35.6358 50.7796 35.7 50.8062 35.752 50.8499C35.804 50.8936 35.8412 50.9523 35.8586 51.0179L37.0598 55.8095C37.0791 55.8832 37.0719 55.9613 37.0393 56.0301C37.0067 56.0989 36.9508 56.1541 36.8816 56.1857C33.6446 57.4986 30.1773 58.1494 26.6846 58.0997V58.0997ZM13.3196 54.1397C16.8251 56.0214 20.6909 57.1352 24.6602 57.4072C28.6294 57.6792 32.611 57.103 36.3404 55.7171L35.258 51.4271L14.765 49.4471L13.3196 54.1397Z" fill="#231F20"/>
<path d="M39.9776 27.9464C40.3493 27.9405 40.6387 27.1706 40.6238 26.2266C40.609 25.2827 40.2956 24.5222 39.9239 24.528C39.5521 24.5338 39.2628 25.3038 39.2776 26.2478C39.2924 27.1917 39.6058 27.9522 39.9776 27.9464Z" fill="#231F20"/>
<path d="M4.86495 140.422C4.86495 140.422 -5.20005 73.2599 3.62415 60.8255C8.58735 53.8295 16.5866 53.5655 23.906 53.9087C29.5886 54.1595 34.6244 53.7305 39.0134 57.2087C49.0388 65.2277 63.6842 136.534 63.6842 136.534C63.6842 136.534 42.0428 151.642 4.86495 140.422Z" fill="#0C326F"/>
<path d="M71.8185 49.1892L74.2953 48.3758L77.3327 57.6249C77.4343 57.9342 77.4088 58.2712 77.2619 58.5617C77.115 58.8523 76.8587 59.0726 76.5494 59.1742L76.4052 59.2215C76.252 59.2718 76.0904 59.2915 75.9297 59.2793C75.7689 59.2672 75.6121 59.2235 75.4683 59.1508C75.3244 59.078 75.1963 58.9777 75.0912 58.8554C74.9861 58.7332 74.9061 58.5914 74.8558 58.4382L71.8185 49.1892V49.1892Z" fill="white"/>
<path d="M76.0261 59.6046C75.6966 59.6054 75.3753 59.5017 75.1085 59.3084C74.8417 59.1151 74.643 58.8421 74.5411 58.5288L71.5051 49.2888C71.478 49.2056 71.4851 49.1151 71.5247 49.0372C71.5643 48.9592 71.6332 48.9002 71.7163 48.873L74.1649 48.0216C74.2452 47.9886 74.3354 47.9886 74.4157 48.0216C74.4935 48.0615 74.5526 48.1302 74.5807 48.213L77.6167 57.453C77.6817 57.6468 77.7076 57.8516 77.6929 58.0556C77.6782 58.2595 77.6231 58.4585 77.5309 58.641C77.3437 59.0094 77.0188 59.2892 76.6267 59.4198L76.4815 59.466C76.3378 59.5355 76.1842 59.5823 76.0261 59.6046V59.6046ZM72.2311 49.3878L75.1681 58.3242C75.2435 58.5501 75.4051 58.7372 75.6176 58.8447C75.8302 58.9522 76.0766 58.9715 76.3033 58.8984L76.4485 58.8522C76.6726 58.7735 76.8587 58.6133 76.9699 58.4034C77.0701 58.1976 77.0867 57.9611 77.0161 57.7434L74.0857 48.807L72.2311 49.3878Z" fill="#231F20"/>
<path d="M72.3424 39.8574L68.3418 41.1711L71.3133 50.2195L75.3139 48.9057L72.3424 39.8574Z" fill="white"/>
<path d="M71.3138 50.5361C71.2636 50.5461 71.2121 50.5461 71.162 50.5361C71.0842 50.4962 71.025 50.4275 70.997 50.3447L68.027 41.2961C67.9999 41.213 68.0069 41.1225 68.0465 41.0445C68.0861 40.9666 68.155 40.9075 68.2382 40.8803L72.2378 39.5603C72.2771 39.5424 72.3199 39.5332 72.3632 39.5332C72.4064 39.5332 72.4492 39.5424 72.4886 39.5603C72.5277 39.5792 72.5626 39.6059 72.591 39.6389C72.6194 39.6718 72.6407 39.7102 72.6536 39.7517L75.6236 48.8003C75.6566 48.8806 75.6566 48.9708 75.6236 49.0511C75.5836 49.1289 75.515 49.188 75.4322 49.2161L71.4326 50.5361H71.3138ZM68.7596 41.3687L71.525 49.7903L74.8976 48.6815L72.1256 40.2599L68.7596 41.3687Z" fill="#231F20"/>
<path d="M75.7852 55.915L74.6064 56.2997C73.8273 56.5539 73.4018 57.3916 73.656 58.1708L77.8687 71.0807C78.123 71.8598 78.9607 72.2853 79.7398 72.0311L80.9186 71.6464C81.6977 71.3922 82.1232 70.5545 81.869 69.7753L77.6563 56.8654C77.402 56.0863 76.5643 55.6608 75.7852 55.915Z" fill="white"/>
<path d="M79.4845 72.1512C79.1029 72.1499 78.7314 72.0289 78.4223 71.805C78.1132 71.5812 77.8822 71.266 77.7619 70.9038L73.5049 57.9942C73.3546 57.5365 73.3917 57.0378 73.6081 56.6073C73.8246 56.1769 74.2028 55.8497 74.6599 55.6974L75.8347 55.3146C76.2916 55.1645 76.7894 55.2017 77.2188 55.4183C77.6482 55.6349 77.9741 56.013 78.1249 56.4696L82.3687 69.3858C82.5189 69.8427 82.4816 70.3405 82.2651 70.7699C82.0485 71.1993 81.6704 71.5252 81.2137 71.676L80.0323 72.0588C79.8561 72.1199 79.671 72.1511 79.4845 72.1512V72.1512ZM76.4221 55.8822C76.2987 55.8826 76.1762 55.9027 76.0591 55.9416L74.8843 56.3244C74.5939 56.4209 74.3536 56.6287 74.2163 56.9022C74.0789 57.1756 74.0557 57.4925 74.1517 57.783L78.3889 70.6992C78.488 70.9872 78.6967 71.2244 78.9697 71.3592C79.1042 71.4285 79.2511 71.47 79.4019 71.4813C79.5527 71.4927 79.7043 71.4736 79.8475 71.4252L81.0223 71.0424C81.1651 70.9937 81.2969 70.9174 81.4101 70.8177C81.5233 70.718 81.6159 70.597 81.6823 70.4616C81.7516 70.3272 81.7931 70.1802 81.8044 70.0294C81.8158 69.8786 81.7967 69.7271 81.7483 69.5838L77.5045 56.6742C77.429 56.446 77.2841 56.247 77.0901 56.105C76.896 55.9631 76.6625 55.8852 76.4221 55.8822V55.8822Z" fill="#231F20"/>
<path d="M69.578 49.3681C75.7491 49.3681 80.7518 44.3654 80.7518 38.1943C80.7518 32.0232 75.7491 27.0205 69.578 27.0205C63.4069 27.0205 58.4042 32.0232 58.4042 38.1943C58.4042 44.3654 63.4069 49.3681 69.578 49.3681Z" fill="white"/>
<path d="M69.5911 49.6981C66.6974 49.701 63.9089 48.6134 61.7814 46.6519C59.6539 44.6904 58.3439 41.9991 58.1123 39.1147C57.8808 36.2302 58.7449 33.3645 60.5322 31.0888C62.3196 28.813 64.8989 27.2945 67.756 26.8359C70.6132 26.3772 73.5382 27.0122 75.948 28.6143C78.3578 30.2163 80.0753 32.6677 80.7582 35.4796C81.441 38.2916 81.039 41.2577 79.6323 43.7865C78.2256 46.3153 75.9176 48.221 73.1683 49.1239C72.0136 49.5026 70.8063 49.6964 69.5911 49.6981V49.6981ZM69.5911 27.3505C68.4452 27.3495 67.3066 27.5322 66.2185 27.8917C63.627 28.7426 61.4513 30.539 60.1253 32.9226C58.7993 35.3063 58.4203 38.1021 59.0639 40.7528C59.7074 43.4035 61.3263 45.7142 63.5978 47.2244C65.8692 48.7346 68.6264 49.3333 71.3196 48.9011C74.0128 48.4689 76.4443 47.0376 78.1292 44.8926C79.8141 42.7475 80.6287 40.0462 80.4106 37.3273C80.1925 34.6084 78.9578 32.0715 76.9525 30.2224C74.9473 28.3733 72.3188 27.3478 69.5911 27.3505V27.3505Z" fill="#231F20"/>
<path d="M69.5779 47.2691C74.5899 47.2691 78.6529 43.2061 78.6529 38.1941C78.6529 33.1822 74.5899 29.1191 69.5779 29.1191C64.5659 29.1191 60.5029 33.1822 60.5029 38.1941C60.5029 43.2061 64.5659 47.2691 69.5779 47.2691Z" fill="white"/>
<path d="M69.5845 47.5993C67.8512 47.6002 66.1514 47.1221 64.6727 46.2177C63.194 45.3134 61.9939 44.0179 61.2051 42.4745C60.4163 40.9311 60.0693 39.1997 60.2025 37.4715C60.3357 35.7433 60.9439 34.0855 61.96 32.6812C62.976 31.2769 64.3604 30.1807 65.9602 29.5137C67.5601 28.8466 69.3131 28.6346 71.0258 28.9012C72.7385 29.1677 74.3443 29.9023 75.6658 31.024C76.9873 32.1456 77.9731 33.6107 78.5143 35.2573V35.2573C78.9786 36.6695 79.1014 38.1716 78.8728 39.6404C78.6443 41.1093 78.0708 42.503 77.1994 43.7074C76.328 44.9117 75.1836 45.8924 73.8599 46.5689C72.5362 47.2454 71.0711 47.5985 69.5845 47.5993V47.5993ZM69.5845 29.4427C67.7353 29.4389 65.9323 30.0211 64.4344 31.1056C62.9365 32.1901 61.8207 33.7212 61.2469 35.4793C60.6732 37.2373 60.6712 39.1319 61.241 40.8912C61.8109 42.6505 62.9234 44.184 64.419 45.2718C65.9145 46.3595 67.7162 46.9456 69.5654 46.9459C71.4147 46.9462 73.2166 46.3606 74.7124 45.2733C76.2083 44.186 77.3212 42.6527 77.8916 40.8936C78.462 39.1345 78.4605 37.2399 77.8873 35.4817V35.4817C77.3129 33.723 76.1963 32.1913 74.6976 31.1064C73.1989 30.0215 71.3951 29.4391 69.5449 29.4427H69.5845Z" fill="#231F20"/>
<path d="M68.0336 76.3092L68.4758 73.0092C68.4758 72.8706 68.7002 62.6868 69.578 61.9014C70.4558 61.116 81.8474 52.8528 82.646 53.9814C83.4446 55.11 81.8474 57.2352 81.8474 57.2352C81.8474 57.2352 84.5204 56.9646 84.2498 58.5552C83.9792 60.1458 82.382 61.7628 82.382 61.7628C82.382 61.7628 84.0188 60.5616 84.2696 62.2974C84.3407 62.8005 84.2775 63.3134 84.0862 63.784C83.8949 64.2547 83.5825 64.6663 83.1806 64.977C83.1806 64.977 85.5896 63.9078 85.055 65.9077C84.5204 67.9075 78.6596 72.996 78.6596 72.996L77.9534 77.3521L68.0336 76.3092Z" fill="white"/>
<path d="M77.9534 77.7216H77.9204L68.0204 76.6656H67.961C67.6904 76.5864 67.6904 76.5864 68.093 73.6098L68.1722 73.0224C68.1722 72.963 68.3438 62.6472 69.3866 61.7034C70.0466 61.0962 80.2964 53.5854 82.4216 53.5854H82.5074C82.5928 53.5913 82.676 53.6156 82.7512 53.6566C82.8264 53.6976 82.8918 53.7544 82.943 53.823C83.603 54.7536 82.943 56.1463 82.5008 56.9185C83.1563 56.8956 83.7973 57.114 84.3026 57.5323C84.4355 57.6837 84.5319 57.8636 84.5845 58.058C84.6372 58.2525 84.6446 58.4565 84.6062 58.6542C84.4088 59.5372 84.0164 60.3648 83.4578 61.0764C83.6111 61.0733 83.7636 61.1002 83.9066 61.1556C84.1181 61.2636 84.2966 61.4267 84.4232 61.6277C84.5498 61.8286 84.6199 62.06 84.626 62.2975C84.7379 63.033 84.5834 63.7843 84.1904 64.416C84.5316 64.3632 84.8798 64.4461 85.1606 64.647C85.3281 64.8328 85.4393 65.0623 85.4814 65.3089C85.5234 65.5554 85.4946 65.8089 85.3982 66.0396C84.8768 68.0196 79.7684 72.534 78.9896 73.2138L78.3296 77.451C78.3135 77.5357 78.2655 77.611 78.1955 77.6614C78.1255 77.7117 78.0388 77.7333 77.9534 77.7216V77.7216ZM68.4032 76.0453L77.6828 77.0286L78.3428 72.9829C78.352 72.906 78.3897 72.8354 78.4484 72.7848C80.0588 71.3922 84.3224 67.4322 84.7448 65.868C84.8372 65.505 84.8306 65.241 84.7448 65.142C84.5138 64.9506 83.7878 65.142 83.3522 65.3136C83.2774 65.3489 83.192 65.3542 83.1134 65.3284C83.0348 65.3027 82.9691 65.2478 82.9298 65.1751C82.8875 65.1047 82.8741 65.0206 82.8926 64.9405C82.9111 64.8605 82.9599 64.7908 83.0288 64.746C83.3806 64.4717 83.6537 64.1094 83.8206 63.6956C83.9874 63.2819 84.0422 62.8315 83.9792 62.3899C83.9396 62.1457 83.8604 61.8487 83.6558 61.7629C83.3324 61.6243 82.778 61.9476 82.6064 62.073C82.5394 62.121 82.4569 62.1423 82.375 62.1325C82.2932 62.1227 82.218 62.0827 82.1642 62.0203C82.109 61.9585 82.0785 61.8786 82.0785 61.7958C82.0785 61.713 82.109 61.6332 82.1642 61.5714C82.1642 61.5714 83.702 60.0204 83.9462 58.542C83.9724 58.4449 83.974 58.3428 83.951 58.2449C83.9279 58.147 83.8809 58.0563 83.8142 57.981C83.405 57.5454 82.2896 57.552 81.9002 57.585C81.8361 57.5913 81.7716 57.5791 81.7143 57.5499C81.657 57.5206 81.6093 57.4756 81.5768 57.42C81.541 57.3675 81.5219 57.3054 81.5219 57.2418C81.5219 57.1783 81.541 57.1162 81.5768 57.0636C81.9794 56.5224 82.8968 54.9516 82.3754 54.1992C81.2534 53.8626 70.9442 61.1491 69.7958 62.1853C69.1358 62.8453 68.7992 71.379 68.7992 73.0488C68.7992 73.0488 68.7992 73.3128 68.7134 73.7088C68.6342 74.2962 68.4758 75.4578 68.4032 76.0188V76.0453Z" fill="#231F20"/>
<path d="M39.0002 57.2087C39.0002 57.2087 45.4154 61.0895 50.2202 69.9797C55.025 78.8699 62.1662 100.855 62.1662 100.855L66.278 72.8507L80.303 76.0121C80.303 76.0121 81.5042 126.172 69.083 131.815C56.6618 137.458 24.9092 102.538 24.9092 102.538L39.0002 57.2087Z" fill="#0C326F"/>
<path d="M65.0371 132.713H64.9447C64.8787 132.713 57.9553 130.621 49.9363 123.196C42.5575 116.358 32.6905 103.448 27.5953 80.7577C27.5858 80.7143 27.5849 80.6695 27.5926 80.6258C27.6004 80.5822 27.6167 80.5404 27.6406 80.5031C27.6645 80.4657 27.6955 80.4334 27.7319 80.408C27.7683 80.3826 27.8094 80.3646 27.8527 80.3551C27.896 80.3455 27.9408 80.3446 27.9845 80.3524C28.0282 80.3602 28.0699 80.3765 28.1073 80.4004C28.1447 80.4243 28.177 80.4553 28.2024 80.4917C28.2278 80.5281 28.2458 80.5691 28.2553 80.6125C37.9243 123.691 64.8721 132 65.1427 132.092C65.2302 132.105 65.3093 132.151 65.3625 132.222C65.4157 132.292 65.4387 132.381 65.4265 132.469C65.4142 132.556 65.3677 132.635 65.2972 132.688C65.2266 132.742 65.1378 132.765 65.0503 132.752L65.0371 132.713Z" fill="#231F20"/>
<path d="M40.3268 41.5273L36.7298 39.4417C36.7298 39.4417 35.6342 43.7646 37.5878 44.88C39.5414 45.9954 40.3268 41.5273 40.3268 41.5273Z" fill="white"/>
<path d="M38.1949 45.3817C37.9221 45.3773 37.6554 45.2998 37.4227 45.1573C35.2777 43.9363 36.3601 39.5407 36.4063 39.3559C36.4196 39.3066 36.4436 39.2609 36.4767 39.222C36.5098 39.1832 36.5512 39.1523 36.5977 39.1315C36.6439 39.1087 36.6947 39.0969 36.7462 39.0969C36.7977 39.0969 36.8485 39.1087 36.8947 39.1315L40.5049 41.2435C40.5627 41.2782 40.6086 41.3295 40.6369 41.3907C40.6651 41.4519 40.6743 41.5202 40.6633 41.5867C40.6039 41.8969 40.0825 44.6359 38.7625 45.2563C38.585 45.3397 38.3911 45.3826 38.1949 45.3817ZM36.9541 39.9499C36.6901 41.2699 36.4855 43.8637 37.7527 44.5699C37.858 44.6421 37.98 44.686 38.1071 44.6976C38.2342 44.7092 38.3622 44.6879 38.4787 44.6359C39.2641 44.2663 39.7987 42.5437 39.9571 41.6791L36.9541 39.9499Z" fill="#231F20"/>
<path d="M31.8062 46.4179C31.8062 46.4179 26.5724 45.0187 24.83 43.3423C26.9038 45.7803 29.2892 47.935 31.925 49.7509L31.8062 46.4179Z" fill="#231F20"/>
<path d="M31.9249 50.0809C31.8612 50.0838 31.7985 50.0652 31.7467 50.0281C29.0756 48.1941 26.657 46.0172 24.5527 43.5535C24.5 43.4885 24.474 43.406 24.4798 43.3226C24.4856 43.2392 24.5229 43.1611 24.5841 43.1042C24.6453 43.0472 24.7258 43.0155 24.8094 43.0156C24.893 43.0157 24.9734 43.0475 25.0345 43.1047C26.6977 44.7019 31.8193 46.0879 31.8721 46.1011C31.9403 46.1183 32.001 46.1572 32.045 46.212C32.0891 46.2668 32.1141 46.3344 32.1163 46.4047L32.2549 49.7047C32.2581 49.7656 32.2444 49.8262 32.2153 49.8798C32.1862 49.9334 32.1428 49.9779 32.0899 50.0083C32.0416 50.0455 31.985 50.0704 31.9249 50.0809V50.0809ZM26.7109 44.9329C28.194 46.4783 29.8205 47.8794 31.5685 49.1173L31.4629 46.6687C29.8425 46.2146 28.2603 45.6343 26.7307 44.9329H26.7109Z" fill="#231F20"/>
<rect x="64" y="36" width="11" height="5" fill="#1555BD"/>
</svg>
