<svg width="24" height="24" viewBox="0 0 24 24" fill="none" xmlns="http://www.w3.org/2000/svg">
<path d="M17 20C16.71 20 16.44 19.94 16.24 19.85C15.53 19.48 15.03 18.97 14.53 17.47C14.02 15.91 13.06 15.18 12.14 14.47C11.35 13.86 10.53 13.23 9.82 11.94C9.29 10.98 9 9.92997 9 8.99997C9 6.19997 11.2 3.99997 14 3.99997C16.8 3.99997 19 6.19997 19 8.99997H21C21 5.06997 17.93 1.99997 14 1.99997C10.07 1.99997 7 5.06997 7 8.99997C7 10.26 7.38 11.65 8.07 12.9C8.98 14.55 10.05 15.38 10.92 16.05C11.73 16.67 12.31 17.12 12.63 18.1C13.23 19.92 14 20.94 15.36 21.65C15.87 21.88 16.43 22 17 22C19.21 22 21 20.21 21 18H19C19 19.1 18.1 20 17 20V20ZM7.64 2.63997L6.22 1.21997C4.23 3.20997 3 5.95997 3 8.99997C3 12.04 4.23 14.79 6.22 16.78L7.63 15.37C6.01 13.74 5 11.49 5 8.99997C5 6.50997 6.01 4.25997 7.64 2.63997V2.63997ZM11.5 8.99997C11.5 10.38 12.62 11.5 14 11.5C15.38 11.5 16.5 10.38 16.5 8.99997C16.5 7.61997 15.38 6.49997 14 6.49997C12.62 6.49997 11.5 7.61997 11.5 8.99997Z" fill="#383838"/>
</svg>
