<svg width="24" height="27" viewBox="0 0 24 27" fill="none" xmlns="http://www.w3.org/2000/svg">
<path d="M16 4.67896H18C18.5304 4.67896 19.0391 4.90441 19.4142 5.30572C19.7893 5.70703 20 6.25133 20 6.81887V21.7983C20 22.3658 19.7893 22.9101 19.4142 23.3114C19.0391 23.7128 18.5304 23.9382 18 23.9382H6C5.46957 23.9382 4.96086 23.7128 4.58579 23.3114C4.21071 22.9101 4 22.3658 4 21.7983V6.81887C4 6.25133 4.21071 5.70703 4.58579 5.30572C4.96086 4.90441 5.46957 4.67896 6 4.67896H8" stroke="#385788" stroke-width="2" stroke-linecap="round" stroke-linejoin="round"/>
<path d="M15 2.53906H9C8.44772 2.53906 8 3.0181 8 3.60902V5.74894C8 6.33986 8.44772 6.8189 9 6.8189H15C15.5523 6.8189 16 6.33986 16 5.74894V3.60902C16 3.0181 15.5523 2.53906 15 2.53906Z" stroke="#385788" stroke-width="2" stroke-linecap="round" stroke-linejoin="round"/>
</svg>
