<svg width="21" height="15" viewBox="0 0 21 15" fill="none" xmlns="http://www.w3.org/2000/svg">
<path d="M20.5612 2.34699C20.3197 1.42316 19.6081 0.695586 18.7046 0.448672C17.0669 0 10.5 0 10.5 0C10.5 0 3.93315 0 2.29544 0.448672C1.39193 0.695625 0.680333 1.42316 0.438815 2.34699C0 4.02148 0 7.51516 0 7.51516C0 7.51516 0 11.0088 0.438815 12.6833C0.680333 13.6071 1.39193 14.3044 2.29544 14.5513C3.93315 15 10.5 15 10.5 15C10.5 15 17.0668 15 18.7046 14.5513C19.6081 14.3044 20.3197 13.6071 20.5612 12.6833C21 11.0088 21 7.51516 21 7.51516C21 7.51516 21 4.02148 20.5612 2.34699V2.34699ZM8.35226 10.6871V4.34316L13.8409 7.51523L8.35226 10.6871V10.6871Z" fill="white"/>
</svg>
